<?xml version="1.0" encoding="UTF-8"?>
<svg id="Layer_1" data-name="Layer 1" xmlns="http://www.w3.org/2000/svg" viewBox="0 0 1024 1024">
  <path d="M213.17,585.09c3.86,155.32,128.16,282.49,282.88,290.16l-.12-64c0-3.86,3.79-7.1,7.2-7.11l22.31-.09c3.11-.01,8.31,2.42,8.32,6.59l.11,64.26c152.64-10.93,272.76-136.87,276.85-289.67l-49.73.14c-4.79.01-8.71-3.31-8.71-8.2v-21.97c0-4.15,3.48-7.84,7.66-7.85l49.51-.06c-2.81-29.99-10.18-58.38-21.47-85.86l-7.65-18.62c-2.54-6.2.49-13.2,6.62-15.71l40.28-16.5c5.6-2.29,12.58.85,14.77,6.25l9.14,22.55c69.47,171.44-1.22,366.28-158.53,455.74-159.38,90.63-362.25,48.12-472.38-97.25-110.71-146.13-95.81-353.59,34.55-482.23,129.95-128.23,337.92-141.63,483.87-26.56l18.15,14.31c5.03,3.97,5.97,11.56,1.94,16.64l-26.5,33.39c-4.13,5.21-11.65,6.76-17.02,2.47l-16.2-12.94c-47.17-37.67-103.93-60.36-164.99-65.01l-.09,52.19c0,4.25-3.4,7.88-7.64,7.88l-22.11.03c-4.42,0-8.11-3.29-8.12-7.91l-.13-52.53c-147.58,7.75-267.43,122.9-281.58,269.71l55.04-.03c4.34,0,7.9,3.56,7.9,7.81l.03,22.16c0,4.24-3.4,8.05-7.9,8.03l-56.27-.22Z"/>
  <path d="M406.27,465.57c-.48-.86-.35-3.41.5-3.78s2.82-.28,4.13-.03l79.92,52.86c16.17-7.49,33.66-7.05,49.39.49l288.6-199.77,3.75.72c.87.17,1.23,2.65-1.54,5.39l-259.88,256.78c-7.99,31.02-35.93,49.35-65.95,44.23s-50.68-33.27-46.76-64.05l-52.17-92.83Z"/>
  <path d="M600.15,185.87c-59.85-10.24-119.49-10.61-180.07.11l-.39-28.45-33.07-.17v-76.05s247,0,247,0v76s-33.29.24-33.29.24l-.18,28.31Z"/>
</svg>
